; NON-PLATED HOLES START AT T1
; THROUGH (PLATED) HOLES START AT T100
M48
INCH
T1C0.139764
T2C0.094488
T100C0.035000
T101C0.059055
T102C0.042000
T103C0.038000
%
T1
X005917Y010588
X027649Y016785
T2
X002566Y016785
T100
X028000Y019464
X032000Y019464
X031000Y024464
X027000Y024464
T101
X027622Y006464
X022378Y006464
X031000Y028464
X004377Y006464
X029000Y028464
X013755Y006464
X005755Y006464
X031000Y013686
X019622Y006464
X030378Y006464
X029000Y006464
X011000Y006464
X021000Y006464
X003000Y006464
X012377Y006464
X002566Y013686
T102
X030000Y021464
X031000Y021464
X029000Y021464
T103
X019663Y020460
X011663Y020460
X011666Y029464
X015666Y029464
X019666Y029464
X016663Y020460
X014663Y020460
X021666Y029464
X015663Y020460
X021663Y020460
X009663Y020460
X017666Y029464
X016666Y029464
X013663Y020460
X006658Y020460
X007663Y020460
X022666Y029464
X018663Y020460
X010663Y020460
X018666Y029464
X014666Y029464
X010666Y029464
X023666Y029464
X012663Y020460
X013666Y029464
X020666Y029464
X022663Y020460
X020663Y020460
X008663Y020460
X012666Y029464
X023663Y020460
X017663Y020460
T00
M30
