G04 MADE WITH FRITZING*
G04 WWW.FRITZING.ORG*
G04 DOUBLE SIDED*
G04 HOLES PLATED*
G04 CONTOUR ON CENTER OF CONTOUR VECTOR*
%FSLAX26Y26*%
%MOIN*%
%ADD10C,0.118110*%
%ADD11C,0.139764*%
%ADD12C,0.094488*%
%ADD13C,0.082000*%
%ADD14C,0.078000*%
%ADD15C,0.099055*%
%ADD16C,0.075000*%
%ADD17R,0.082000X0.082000*%
%ADD18R,0.099055X0.099055*%
%ADD19C,0.024000*%
G04 COPPER1*
%FSLAX26Y26*%
%MOIN*%
D10*
X256690Y1368680D03*
X3100000Y1368680D03*
D11*
X591730Y1058840D03*
X2764960Y1678520D03*
D12*
X256690Y1678520D03*
D10*
X256690Y1368680D03*
X3100000Y1368680D03*
D11*
X591730Y1058840D03*
X2764960Y1678520D03*
D12*
X256690Y1678520D03*
D13*
X2900000Y2146460D03*
X3000000Y2146460D03*
X3100000Y2146460D03*
D14*
X665843Y2046070D03*
X766324Y2046070D03*
X866324Y2046070D03*
X966324Y2046070D03*
X1066320Y2046070D03*
X1166320Y2046070D03*
X1266320Y2046070D03*
X1366320Y2046070D03*
X1466320Y2046070D03*
X1566320Y2046070D03*
X1666320Y2046070D03*
X1766320Y2046070D03*
X1866320Y2046070D03*
X1966320Y2046070D03*
X2066320Y2046070D03*
X2166320Y2046070D03*
X2266320Y2046070D03*
X2366320Y2046070D03*
X2366660Y2946458D03*
X2266660Y2946458D03*
X2166660Y2946458D03*
X2066660Y2946458D03*
X1966660Y2946458D03*
X1866660Y2946458D03*
X1766660Y2946458D03*
X1666660Y2946458D03*
X1566660Y2946458D03*
X1466660Y2946458D03*
X1366660Y2946458D03*
X1266660Y2946458D03*
X1166660Y2946458D03*
X1066670Y2946458D03*
D15*
X3100000Y2846460D03*
X2900000Y2846460D03*
X2762210Y646460D03*
X2900000Y646460D03*
X3037800Y646460D03*
X1962210Y646460D03*
X2100000Y646460D03*
X2237800Y646460D03*
X1100000Y646460D03*
X1237790Y646460D03*
X1375590Y646460D03*
X300000Y646460D03*
X437795Y646460D03*
X575590Y646460D03*
D16*
X3100000Y2446460D03*
X2700000Y2446460D03*
X2800000Y1946460D03*
X3200000Y1946460D03*
D17*
X2900000Y2146460D03*
D18*
X3099998Y2846460D03*
X2762208Y646462D03*
X1962208Y646462D03*
X1099998Y646462D03*
X300000Y646462D03*
D19*
X499227Y2548588D02*
X1597830Y2648328D01*
D02*
X1597830Y2648328D02*
X1757300Y2929927D01*
D02*
X499227Y1844320D02*
X401165Y2646650D01*
D02*
X601747Y1648190D02*
X499227Y1844320D01*
D02*
X1499510Y2746657D02*
X1654480Y2931887D01*
D02*
X401165Y2646650D02*
X1499510Y2746657D01*
D02*
X401164Y948380D02*
X560820Y672020D01*
D02*
X398230Y947250D02*
X401164Y948380D01*
D02*
X401165Y948390D02*
X398230Y947250D01*
D02*
X401165Y1447610D02*
X401165Y948390D01*
D02*
X1401180Y2844986D02*
X298645Y2744713D01*
D02*
X401165Y1844320D02*
X401165Y1447610D01*
D02*
X298645Y2744713D02*
X401165Y1844320D01*
D02*
X601747Y1648200D02*
X601747Y1648190D01*
D02*
X601747Y1844320D02*
X499227Y2548588D01*
D02*
X1199040Y1247030D02*
X601747Y1844320D01*
D02*
X2201960Y948390D02*
X1199040Y1247030D01*
D02*
X2234310Y675780D02*
X2201960Y948390D01*
D02*
X1357540Y669820D02*
X601747Y1648200D01*
D02*
X1556310Y2930532D02*
X1502140Y2847233D01*
D02*
X1502140Y2847233D02*
X1401180Y2844986D01*
D02*
X3034110Y675760D02*
X2999820Y948390D01*
D02*
X2598660Y1844320D02*
X2598660Y2744713D01*
D02*
X2701180Y1144510D02*
X2598660Y1844320D01*
D02*
X2999820Y948390D02*
X2701180Y1144510D01*
D02*
X2598660Y2744713D02*
X1898850Y2744713D01*
D02*
X1898850Y2744713D02*
X1869660Y2927697D01*
D02*
X2767540Y617420D02*
X2799240Y444700D01*
D02*
X2901760Y1345090D02*
X2997440Y2125620D01*
D02*
X3097880Y1046450D02*
X2901760Y1345090D01*
D02*
X3200400Y747800D02*
X3097880Y1046450D01*
D02*
X3200400Y444700D02*
X3200400Y747800D01*
D02*
X2799240Y444700D02*
X3200400Y444700D01*
D02*
X1967830Y617470D02*
X2001370Y444700D01*
D02*
X2701180Y444700D02*
X2753660Y618200D01*
D02*
X2001370Y444700D02*
X2701180Y444700D01*
D02*
X1113010Y619950D02*
X1199040Y444700D01*
D02*
X1898850Y444700D02*
X1953360Y618290D01*
D02*
X1199040Y444700D02*
X1898850Y444700D01*
D02*
X313235Y620060D02*
X401165Y444700D01*
D02*
X998455Y444700D02*
X1086720Y620080D01*
D02*
X401165Y444700D02*
X998455Y444700D01*
G04 End of Copper1*
M02*