<?xml version='1.0' encoding='UTF-8' standalone='no'?>
<svg xmlns="http://www.w3.org/2000/svg" enable-background="new 0 0 154.08 37.908" gorn="0" height="0.83391815in" id="Ebene_1" version="1.1" viewBox="0 0 221.03998 60.04211" width="3.0699999in" x="0px" xml:space="preserve"  xmlns:xml="http://www.w3.org/XML/1998/namespace" y="0px">
    <metadata id="metadata206">
        <rdf:RDF xmlns:rdf="http://www.w3.org/1999/02/22-rdf-syntax-ns#">
            <cc:Work rdf:about="" xmlns:cc="http://creativecommons.org/ns#" xmlns:rdf="http://www.w3.org/1999/02/22-rdf-syntax-ns#">
                <dc:format xmlns:dc="http://purl.org/dc/elements/1.1/">image/svg+xml</dc:format>
                <dc:type rdf:resource="http://purl.org/dc/dcmitype/StillImage" xmlns:dc="http://purl.org/dc/elements/1.1/" xmlns:rdf="http://www.w3.org/1999/02/22-rdf-syntax-ns#"/>
                <dc:title xmlns:dc="http://purl.org/dc/elements/1.1/"/>
            </cc:Work>
        </rdf:RDF>
    </metadata>
    <defs id="defs204"/>
    <desc id="desc2">
        <referenceFile>prefix0000_8dc61650ae2fa5c430e32ca65d474a4f_1_breadboard.svg</referenceFile>
    </desc>
    <g id="breadboard">
        <circle cx="215.532" cy="29.216387" fill="none" gorn="0.0.1" id="connector1pin" r="3.0049999" stroke="#9a916c" stroke-width="0.25400001"/>
        <ellipse cx="6.7319994" cy="29.233385" fill="none" gorn="0.0.2" id="connector0pin" rx="3.0049999" ry="2.9879999" stroke="#9a916c" stroke-width="0.25400001"/>
        <path clip-rule="evenodd" d="M 0.531316,59.510715 H 220.50868 V 0.531316 H 0.531316 Z" fill="#605d5c" fill-opacity="1" fill-rule="evenodd" id="path1790" image-rendering="optimizeQuality" shape-rendering="geometricPrecision" stroke="none" stroke-width="0.75002289" text-rendering="geometricPrecision"/>
        <path clip-rule="evenodd" d="M 0.531316,58.979399 H 220.50868 v 1.062708 H 0.531316 Z m 220.508674,0.531316 v 0.531392 h -0.53131 v -0.531392 z m -1.0627,0 V 0.531316 h 1.0627 V 59.510715 Z M 220.50868,0 h 0.53131 v 0.531316 h -0.53131 z m 0,1.062632 H 0.531316 V 0 H 220.50868 Z M 0,0.531316 V 0 h 0.531316 v 0.531316 z m 1.062707,0 V 59.510715 H 0 V 0.531316 Z M 0.531316,60.042107 H 0 v -0.531392 h 0.531316 z" fill="#24211d" fill-opacity="1" fill-rule="nonzero" id="path1792" image-rendering="optimizeQuality" shape-rendering="geometricPrecision" stroke="none" stroke-width="0.75002289" text-rendering="geometricPrecision"/>
        <path clip-rule="evenodd" d="M 5.313462,56.322668 H 215.72653 V 4.250755 H 5.313462 Z" fill="#716f6e" fill-opacity="1" fill-rule="evenodd" id="path1794" image-rendering="optimizeQuality" shape-rendering="geometricPrecision" stroke="none" stroke-width="0.75002289" text-rendering="geometricPrecision"/>
        <path clip-rule="evenodd" d="M 5.313462,56.322668 H 215.72653 V 4.250755 H 5.313462 Z" fill="none" fill-rule="evenodd" id="path1796" image-rendering="optimizeQuality" shape-rendering="geometricPrecision" stroke="#24211d" stroke-dasharray="none" stroke-linecap="round" stroke-linejoin="round" stroke-miterlimit="4" stroke-opacity="1" stroke-width="0.425077" text-rendering="geometricPrecision"/>
        <path clip-rule="evenodd" d="m 188.6279,26.56731 c 2.65674,0 4.78208,1.594024 4.78208,4.250755 0,2.656731 -2.12534,4.782071 -4.78208,4.782071 -2.12541,0 -4.25075,-2.12534 -4.25075,-4.782071 0,-2.656731 2.12534,-4.250755 4.25075,-4.250755 z" fill="#24211d" fill-opacity="1" fill-rule="evenodd" id="path1798" image-rendering="optimizeQuality" shape-rendering="geometricPrecision" stroke="none" stroke-width="0.75002289" text-rendering="geometricPrecision"/>
        <path clip-rule="evenodd" d="m 188.6279,26.035919 v 0 1.062708 0 z m 0,0 c 1.59403,0 2.65674,0.531391 3.71944,1.062708 l -0.53139,1.062707 c -1.0627,-1.062707 -2.12534,-1.062707 -3.18805,-1.062707 z m 3.71944,1.062708 c 1.06264,1.062707 1.59403,2.656731 1.59403,3.719438 h -1.06271 c 0,-1.062707 -0.53132,-2.125415 -1.06271,-2.656731 z m 1.59403,3.719438 v 0 h -1.06271 v 0 z m 0,0 v 0 h -1.06271 v 0 z m 0,0 c 0,1.594024 -0.53139,2.656731 -1.59403,3.719438 l -0.53139,-1.062707 c 0.53139,-0.531391 1.06271,-1.594024 1.06271,-2.656731 z m -2.12542,2.656731 v 0 0.531316 z m 0.53139,1.062707 c -1.0627,1.062633 -2.12541,1.594024 -3.71944,1.594024 V 35.06882 c 1.06271,0 2.12535,-0.531317 3.18805,-1.594024 z m -3.71944,1.594024 v 0 -1.062707 0 z m 0,0 v 0 -1.062707 0 z m 0,0 c -1.0627,0 -2.65673,-0.531391 -3.18812,-1.594024 l 0.53139,-1.062707 c 0.53132,1.062707 1.59403,1.594024 2.65673,1.594024 z m -3.18812,-1.594024 c -1.06263,-1.062707 -1.59402,-2.125414 -1.59402,-3.719438 h 1.06271 c 0,1.062707 0.53131,2.12534 1.0627,2.656731 z m -1.59402,-3.719438 v 0 h 1.06271 v 0 z m 0,0 v 0 h 1.06271 v 0 z m 0,0 c 0,-1.062707 0.53139,-2.656731 1.59402,-3.719438 l 0.53139,1.062707 c -0.53139,0.531316 -1.0627,1.594024 -1.0627,2.656731 z m 1.59402,-3.719438 v 0 0.531316 z m 0,0 c 0.53139,-0.531317 2.12542,-1.062708 3.18812,-1.062708 v 1.062708 c -1.0627,0 -2.12541,0 -2.65673,1.062707 z m 3.18812,-1.062708 v 0 1.062708 0 z" fill="#24211d" fill-opacity="1" fill-rule="nonzero" id="path1800" image-rendering="optimizeQuality" shape-rendering="geometricPrecision" stroke="none" stroke-width="0.75002289" text-rendering="geometricPrecision"/>
        <path clip-rule="evenodd" d="M 86.078103,6.907486 H 132.83655 V 0.531316 H 86.078103 Z" fill="#ffffff" fill-opacity="1" fill-rule="evenodd" id="path1802" image-rendering="optimizeQuality" shape-rendering="geometricPrecision" stroke="none" stroke-width="0.75002289" text-rendering="geometricPrecision"/>
        <path clip-rule="evenodd" d="M 86.078103,6.907486 H 132.83655 V 0.531316 H 86.078103 Z" fill="none" fill-rule="evenodd" id="path1804" image-rendering="optimizeQuality" shape-rendering="geometricPrecision" stroke="#24211d" stroke-dasharray="none" stroke-linecap="round" stroke-linejoin="round" stroke-miterlimit="4" stroke-opacity="1" stroke-width="0.425077" text-rendering="geometricPrecision"/>
        <path clip-rule="evenodd" d="M 5.844778,40.913598 H 20.191141 V 19.128434 H 5.844778 Z" fill="#dddddc" fill-opacity="1" fill-rule="evenodd" id="path1806" image-rendering="optimizeQuality" shape-rendering="geometricPrecision" stroke="none" stroke-width="0.75002289" text-rendering="geometricPrecision"/>
        <path clip-rule="evenodd" d="M 5.844778,40.913598 H 20.191141 V 19.128434 H 5.844778 Z" fill="none" fill-rule="evenodd" id="path1808" image-rendering="optimizeQuality" shape-rendering="geometricPrecision" stroke="#24211d" stroke-dasharray="none" stroke-linecap="round" stroke-linejoin="round" stroke-miterlimit="4" stroke-opacity="1" stroke-width="0.425077" text-rendering="geometricPrecision"/>
        <path clip-rule="evenodd" d="m 10.095533,41.976306 h 4.782146 v -1.062708 h -4.782146 z" fill="#dddddc" fill-opacity="1" fill-rule="evenodd" id="path1810" image-rendering="optimizeQuality" shape-rendering="geometricPrecision" stroke="none" stroke-width="0.75002289" text-rendering="geometricPrecision"/>
        <path clip-rule="evenodd" d="m 10.095533,41.976306 h 4.782146 v -1.062708 h -4.782146 z" fill="none" fill-rule="evenodd" id="path1812" image-rendering="optimizeQuality" shape-rendering="geometricPrecision" stroke="#24211d" stroke-dasharray="none" stroke-linecap="round" stroke-linejoin="round" stroke-miterlimit="4" stroke-opacity="1" stroke-width="0.425077" text-rendering="geometricPrecision"/>
        <path clip-rule="evenodd" d="m 5.844778,40.913598 h 4.250755 V 17.53441 H 5.844778 Z" fill="#dddddc" fill-opacity="1" fill-rule="evenodd" id="path1814" image-rendering="optimizeQuality" shape-rendering="geometricPrecision" stroke="none" stroke-width="0.75002289" text-rendering="geometricPrecision"/>
        <path clip-rule="evenodd" d="m 5.844778,40.913598 h 4.250755 V 17.53441 H 5.844778 Z" fill="none" fill-rule="evenodd" id="path1816" image-rendering="optimizeQuality" shape-rendering="geometricPrecision" stroke="#24211d" stroke-dasharray="none" stroke-linecap="round" stroke-linejoin="round" stroke-miterlimit="4" stroke-opacity="1" stroke-width="0.425077" text-rendering="geometricPrecision"/>
        <path clip-rule="evenodd" d="m 7.970193,21.253848 h 2.12534 v -2.125414 h -2.12534 z" fill="#dddddc" fill-opacity="1" fill-rule="evenodd" id="path1818" image-rendering="optimizeQuality" shape-rendering="geometricPrecision" stroke="none" stroke-width="0.75002289" text-rendering="geometricPrecision"/>
        <path clip-rule="evenodd" d="m 7.970193,21.253848 h 2.12534 v -2.125414 h -2.12534 z" fill="none" fill-rule="evenodd" id="path1820" image-rendering="optimizeQuality" shape-rendering="geometricPrecision" stroke="#24211d" stroke-dasharray="none" stroke-linecap="round" stroke-linejoin="round" stroke-miterlimit="4" stroke-opacity="1" stroke-width="0.425077" text-rendering="geometricPrecision"/>
        <path clip-rule="evenodd" d="m 7.970193,40.913598 h 2.12534 v -2.656731 h -2.12534 z" fill="#dddddc" fill-opacity="1" fill-rule="evenodd" id="path1822" image-rendering="optimizeQuality" shape-rendering="geometricPrecision" stroke="none" stroke-width="0.75002289" text-rendering="geometricPrecision"/>
        <path clip-rule="evenodd" d="m 7.970193,40.913598 h 2.12534 v -2.656731 h -2.12534 z" fill="none" fill-rule="evenodd" id="path1824" image-rendering="optimizeQuality" shape-rendering="geometricPrecision" stroke="#24211d" stroke-dasharray="none" stroke-linecap="round" stroke-linejoin="round" stroke-miterlimit="4" stroke-opacity="1" stroke-width="0.425077" text-rendering="geometricPrecision"/>
        <path clip-rule="evenodd" d="m 10.095533,40.913598 h 1.594098 V 19.128434 h -1.594098 z" fill="#dddddc" fill-opacity="1" fill-rule="evenodd" id="path1826" image-rendering="optimizeQuality" shape-rendering="geometricPrecision" stroke="none" stroke-width="0.75002289" text-rendering="geometricPrecision"/>
        <path clip-rule="evenodd" d="m 10.095533,40.913598 h 1.594098 V 19.128434 h -1.594098 z" fill="none" fill-rule="evenodd" id="path1828" image-rendering="optimizeQuality" shape-rendering="geometricPrecision" stroke="#24211d" stroke-dasharray="none" stroke-linecap="round" stroke-linejoin="round" stroke-miterlimit="4" stroke-opacity="1" stroke-width="0.425077" text-rendering="geometricPrecision"/>
        <path clip-rule="evenodd" d="M 5.844778,40.913598 H 6.37617 V 19.128434 H 5.844778 Z" fill="#dddddc" fill-opacity="1" fill-rule="evenodd" id="path1830" image-rendering="optimizeQuality" shape-rendering="geometricPrecision" stroke="none" stroke-width="0.75002289" text-rendering="geometricPrecision"/>
        <path clip-rule="evenodd" d="M 5.844778,40.913598 H 6.37617 V 19.128434 H 5.844778 Z" fill="none" fill-rule="evenodd" id="path1832" image-rendering="optimizeQuality" shape-rendering="geometricPrecision" stroke="#24211d" stroke-dasharray="none" stroke-linecap="round" stroke-linejoin="round" stroke-miterlimit="4" stroke-opacity="1" stroke-width="0.425077" text-rendering="geometricPrecision"/>
        <path clip-rule="evenodd" d="m 214.66382,41.444989 h -14.34628 v -21.78524 h 14.34628 z" fill="#dddddc" fill-opacity="1" fill-rule="evenodd" id="path1834" image-rendering="optimizeQuality" shape-rendering="geometricPrecision" stroke="none" stroke-width="0.75002289" text-rendering="geometricPrecision"/>
        <path clip-rule="evenodd" d="m 214.66382,41.444989 h -14.34628 v -0.531391 h 14.34628 z m -14.34628,0 h -0.5314 v 0 z m -0.5314,0 v -21.78524 h 1.06271 v 21.78524 z m 0,-21.78524 v -0.531315 h 0.5314 v 0.531315 z m 0.5314,-0.531315 h 14.34628 v 1.062707 h -14.34628 z m 14.34628,0 h 0.53139 v 0.531315 h -0.53139 z m 0.53139,0.531315 v 21.78524 h -1.0627 v -21.78524 z m 0,21.78524 v 0 h -0.53139 v 0 z" fill="#24211d" fill-opacity="1" fill-rule="nonzero" id="path1836" image-rendering="optimizeQuality" shape-rendering="geometricPrecision" stroke="none" stroke-width="0.75002289" text-rendering="geometricPrecision"/>
        <path clip-rule="evenodd" d="M 210.41307,18.065726 H 205.631 v 1.594023 h 4.78207 z" fill="#dddddc" fill-opacity="1" fill-rule="evenodd" id="path1838" image-rendering="optimizeQuality" shape-rendering="geometricPrecision" stroke="none" stroke-width="0.75002289" text-rendering="geometricPrecision"/>
        <path clip-rule="evenodd" d="M 210.41307,18.597117 H 205.631 V 17.53441 h 4.78207 z m -5.31346,-0.531391 V 17.53441 h 0.53139 v 0.531316 z m 0.53139,0 v 1.594023 h -0.53139 v -1.594023 z m 0,2.125415 h -0.53139 v -0.531392 h 0.53139 z m 0,-1.062707 h 4.78207 v 1.062707 H 205.631 Z m 5.31346,0.531315 v 0.531392 h -0.53139 v -0.531392 z m -1.06271,0 v -1.594023 h 1.06271 v 1.594023 z m 0.53132,-2.125339 h 0.53139 v 0.531316 h -0.53139 z" fill="#24211d" fill-opacity="1" fill-rule="nonzero" id="path1840" image-rendering="optimizeQuality" shape-rendering="geometricPrecision" stroke="none" stroke-width="0.75002289" text-rendering="geometricPrecision"/>
        <path clip-rule="evenodd" d="m 214.66382,42.507697 h -4.25075 V 19.659749 h 4.25075 z" fill="#dddddc" fill-opacity="1" fill-rule="evenodd" id="path1842" image-rendering="optimizeQuality" shape-rendering="geometricPrecision" stroke="none" stroke-width="0.75002289" text-rendering="geometricPrecision"/>
        <path clip-rule="evenodd" d="m 214.66382,43.039013 h -4.25075 v -1.062707 h 4.25075 z m -4.25075,0 h -0.53132 v -0.531316 h 0.53132 z m -0.53132,-0.531316 V 19.659749 h 1.06271 v 22.847948 z m 0,-22.847948 v -0.531315 h 0.53132 v 0.531315 z m 0.53132,-0.531315 h 4.25075 v 1.062707 h -4.25075 z m 4.25075,0 h 0.53139 v 0.531315 h -0.53139 z m 0.53139,0.531315 v 22.847948 h -1.0627 V 19.659749 Z m 0,22.847948 v 0.531316 h -0.53139 v -0.531316 z" fill="#24211d" fill-opacity="1" fill-rule="nonzero" id="path1844" image-rendering="optimizeQuality" shape-rendering="geometricPrecision" stroke="none" stroke-width="0.75002289" text-rendering="geometricPrecision"/>
        <path clip-rule="evenodd" d="m 212.53848,41.444989 h -2.12541 v -2.656731 h 2.12541 z" fill="#dddddc" fill-opacity="1" fill-rule="evenodd" id="path1846" image-rendering="optimizeQuality" shape-rendering="geometricPrecision" stroke="none" stroke-width="0.75002289" text-rendering="geometricPrecision"/>
        <path clip-rule="evenodd" d="m 212.53848,41.444989 h -2.12541 v -0.531391 h 2.12541 z m -2.12541,0 h -0.53132 v 0 z m -0.53132,0 v -2.656731 h 1.06271 v 2.656731 z m 0,-2.656731 v -0.531391 h 0.53132 v 0.531391 z m 0.53132,-0.531391 h 2.12541 v 1.062708 h -2.12541 z m 2.12541,0 h 0.53132 v 0.531391 h -0.53132 z m 0.53132,0.531391 v 2.656731 h -1.06271 v -2.656731 z m 0,2.656731 v 0 h -0.53132 v 0 z" fill="#24211d" fill-opacity="1" fill-rule="nonzero" id="path1848" image-rendering="optimizeQuality" shape-rendering="geometricPrecision" stroke="none" stroke-width="0.75002289" text-rendering="geometricPrecision"/>
        <path clip-rule="evenodd" d="m 212.00709,19.659749 h -1.59402 v 2.125416 h 1.59402 z" fill="#dddddc" fill-opacity="1" fill-rule="evenodd" id="path1850" image-rendering="optimizeQuality" shape-rendering="geometricPrecision" stroke="none" stroke-width="0.75002289" text-rendering="geometricPrecision"/>
        <path clip-rule="evenodd" d="m 212.00709,20.191141 h -1.59402 v -1.062707 h 1.59402 z m -2.12534,-0.531392 v -0.531315 h 0.53132 v 0.531315 z m 1.06271,0 v 2.125416 h -1.06271 v -2.125416 z m -0.53139,2.656732 h -0.53132 v -0.531316 h 0.53132 z m 0,-1.062633 h 1.59402 v 1.062633 h -1.59402 z m 2.12541,0.531317 v 0.531316 h -0.53139 v -0.531316 z m -1.0627,0 v -2.125416 h 1.0627 v 2.125416 z m 0.53131,-2.656731 h 0.53139 v 0.531315 h -0.53139 z" fill="#24211d" fill-opacity="1" fill-rule="nonzero" id="path1852" image-rendering="optimizeQuality" shape-rendering="geometricPrecision" stroke="none" stroke-width="0.75002289" text-rendering="geometricPrecision"/>
        <path clip-rule="evenodd" d="m 210.41307,41.444989 h -2.12534 v -21.78524 h 2.12534 z" fill="#dddddc" fill-opacity="1" fill-rule="evenodd" id="path1854" image-rendering="optimizeQuality" shape-rendering="geometricPrecision" stroke="none" stroke-width="0.75002289" text-rendering="geometricPrecision"/>
        <path clip-rule="evenodd" d="m 210.41307,41.444989 h -2.12534 v -0.531391 h 2.12534 z m -2.12534,0 h -0.53139 v 0 z m -0.53139,0 v -21.78524 h 1.0627 v 21.78524 z m 0,-21.78524 v -0.531315 h 0.53139 v 0.531315 z m 0.53139,-0.531315 h 2.12534 v 1.062707 h -2.12534 z m 2.12534,0 h 0.53139 v 0.531315 h -0.53139 z m 0.53139,0.531315 v 21.78524 h -1.06271 v -21.78524 z m 0,21.78524 v 0 h -0.53139 v 0 z" fill="#24211d" fill-opacity="1" fill-rule="nonzero" id="path1856" image-rendering="optimizeQuality" shape-rendering="geometricPrecision" stroke="none" stroke-width="0.75002289" text-rendering="geometricPrecision"/>
        <path clip-rule="evenodd" d="m 213.60119,41.444989 h 1.06263 v -21.78524 h -1.06263 z" fill="#dddddc" fill-opacity="1" fill-rule="evenodd" id="path1858" image-rendering="optimizeQuality" shape-rendering="geometricPrecision" stroke="none" stroke-width="0.75002289" text-rendering="geometricPrecision"/>
        <path clip-rule="evenodd" d="m 213.60119,40.913598 h 1.06263 v 0.531391 h -1.06263 z m 1.59402,0.531391 v 0 h -0.53139 v 0 z m -1.0627,0 v -21.78524 h 1.0627 v 21.78524 z m 0.53131,-22.316555 h 0.53139 v 0.531315 h -0.53139 z m 0,1.062707 h -1.06263 v -1.062707 h 1.06263 z m -1.59402,-0.531392 v -0.531315 h 0.53139 v 0.531315 z m 1.06271,0 v 21.78524 h -1.06271 v -21.78524 z m -0.53132,21.78524 h -0.53139 v 0 z" fill="#24211d" fill-opacity="1" fill-rule="nonzero" id="path1860" image-rendering="optimizeQuality" shape-rendering="geometricPrecision" stroke="none" stroke-width="0.75002289" text-rendering="geometricPrecision"/>
        <path clip-rule="evenodd" d="M 86.078103,59.510715 H 131.77385 V 53.665937 H 86.078103 Z" fill="#ffffff" fill-opacity="1" fill-rule="evenodd" id="path1862" image-rendering="optimizeQuality" shape-rendering="geometricPrecision" stroke="none" stroke-width="0.75002289" text-rendering="geometricPrecision"/>
        <path clip-rule="evenodd" d="M 86.078103,59.510715 H 131.77385 V 53.665937 H 86.078103 Z" fill="none" fill-rule="evenodd" id="path1864" image-rendering="optimizeQuality" shape-rendering="geometricPrecision" stroke="#24211d" stroke-dasharray="none" stroke-linecap="round" stroke-linejoin="round" stroke-miterlimit="4" stroke-opacity="1" stroke-width="0.425077" text-rendering="geometricPrecision"/>
        <path clip-rule="evenodd" d="m 37.725553,59.510715 h 17.00309 v -3.188047 h -17.00309 z" fill="none" fill-rule="evenodd" id="path1866" image-rendering="optimizeQuality" shape-rendering="geometricPrecision" stroke="#24211d" stroke-dasharray="none" stroke-linecap="round" stroke-linejoin="round" stroke-miterlimit="4" stroke-opacity="1" stroke-width="0.425077" text-rendering="geometricPrecision"/>
        <path clip-rule="evenodd" d="M 37.194235,4.250755 H 55.259963 V 0.531316 H 37.194235 Z" fill="none" fill-rule="evenodd" id="path1868" image-rendering="optimizeQuality" shape-rendering="geometricPrecision" stroke="#24211d" stroke-dasharray="none" stroke-linecap="round" stroke-linejoin="round" stroke-miterlimit="4" stroke-opacity="1" stroke-width="0.425077" text-rendering="geometricPrecision"/>
        <path clip-rule="evenodd" d="m 29.755358,4.250755 h 7.438877 V 0.531316 h -7.438877 z" fill="none" fill-rule="evenodd" id="path1870" image-rendering="optimizeQuality" shape-rendering="geometricPrecision" stroke="#24211d" stroke-dasharray="none" stroke-linecap="round" stroke-linejoin="round" stroke-miterlimit="4" stroke-opacity="1" stroke-width="0.425077" text-rendering="geometricPrecision"/>
        <path clip-rule="evenodd" d="m 29.755358,59.510715 h 7.970195 v -3.188047 h -7.970195 z" fill="none" fill-rule="evenodd" id="path1872" image-rendering="optimizeQuality" shape-rendering="geometricPrecision" stroke="#24211d" stroke-dasharray="none" stroke-linecap="round" stroke-linejoin="round" stroke-miterlimit="4" stroke-opacity="1" stroke-width="0.425077" text-rendering="geometricPrecision"/>
        <path clip-rule="evenodd" d="m 162.59191,59.510715 h 26.56731 v -3.188047 h -26.56731 z" fill="none" fill-rule="evenodd" id="path1874" image-rendering="optimizeQuality" shape-rendering="geometricPrecision" stroke="#24211d" stroke-dasharray="none" stroke-linecap="round" stroke-linejoin="round" stroke-miterlimit="4" stroke-opacity="1" stroke-width="0.425077" text-rendering="geometricPrecision"/>
        <path clip-rule="evenodd" d="m 180.12632,59.510715 h 9.0329 v -3.188047 h -9.0329 z" fill="none" fill-rule="evenodd" id="path1876" image-rendering="optimizeQuality" shape-rendering="geometricPrecision" stroke="#24211d" stroke-dasharray="none" stroke-linecap="round" stroke-linejoin="round" stroke-miterlimit="4" stroke-opacity="1" stroke-width="0.425077" text-rendering="geometricPrecision"/>
        <path clip-rule="evenodd" d="M 162.59191,4.250755 H 188.6279 V 0.531316 h -26.03599 z" fill="none" fill-rule="evenodd" id="path1878" image-rendering="optimizeQuality" shape-rendering="geometricPrecision" stroke="#24211d" stroke-dasharray="none" stroke-linecap="round" stroke-linejoin="round" stroke-miterlimit="4" stroke-opacity="1" stroke-width="0.425077" text-rendering="geometricPrecision"/>
        <path clip-rule="evenodd" d="m 180.12632,4.250755 h 8.50158 V 0.531316 h -8.50158 z" fill="none" fill-rule="evenodd" id="path1880" image-rendering="optimizeQuality" shape-rendering="geometricPrecision" stroke="#24211d" stroke-dasharray="none" stroke-linecap="round" stroke-linejoin="round" stroke-miterlimit="4" stroke-opacity="1" stroke-width="0.425077" text-rendering="geometricPrecision"/>
        <path clip-rule="evenodd" d="m 31.880772,26.56731 c 2.12534,0 4.250755,1.594024 4.250755,4.250755 0,2.656731 -2.125415,4.782071 -4.250755,4.782071 -2.656731,0 -4.782145,-2.12534 -4.782145,-4.782071 0,-2.656731 2.125414,-4.250755 4.782145,-4.250755 z" fill="#24211d" fill-opacity="1" fill-rule="evenodd" id="path1882" image-rendering="optimizeQuality" shape-rendering="geometricPrecision" stroke="none" stroke-width="0.75002289" text-rendering="geometricPrecision"/>
        <path clip-rule="evenodd" d="m 31.880772,26.035919 v 0 1.062708 0 z m 0,0 c 1.062708,0 2.656731,0.531391 3.188048,1.062708 l -0.531317,1.062707 C 34.006112,27.098627 32.94348,27.098627 31.880772,27.098627 Z m 2.656731,2.125415 v 0 l 0.531317,-0.531391 z m 0.531317,-1.062707 c 1.062707,1.062707 1.594023,2.656731 1.594023,3.719438 h -1.062632 c 0,-1.062707 -0.531391,-2.125415 -1.062708,-2.656731 z m 1.594023,3.719438 v 0 h -1.062632 v 0 z m 0,0 v 0 h -1.062632 v 0 z m 0,0 c 0,1.594024 -0.531316,2.656731 -1.594023,3.719438 l -0.531317,-1.062707 c 0.531317,-0.531391 1.062708,-1.594024 1.062708,-2.656731 z m -1.594023,3.719438 c -0.531317,1.062633 -2.12534,1.594024 -3.188048,1.594024 V 35.06882 c 1.062708,0 2.12534,-0.531317 2.656731,-1.594024 z m -3.188048,1.594024 v 0 -1.062707 0 z m 0,0 v 0 -1.062707 0 z m 0,0 c -1.594023,0 -2.656731,-0.531391 -3.719438,-1.594024 l 0.531316,-1.062707 c 1.062708,1.062707 2.125415,1.594024 3.188122,1.594024 z m -3.719438,-1.594024 v 0 l 0.531316,-0.531391 z m 0,0 C 27.098627,33.474796 26.56731,32.412089 26.56731,30.818065 h 1.062708 c 0,1.062707 0.531316,2.12534 1.062632,2.656731 z M 26.56731,30.818065 v 0 h 1.062708 v 0 z m 0,0 v 0 h 1.062708 v 0 z m 0,0 c 0,-1.062707 0.531317,-2.656731 1.594024,-3.719438 l 0.531316,1.062707 c -0.531316,0.531316 -1.062632,1.594024 -1.062632,2.656731 z m 1.594024,-3.719438 v 0 l 0.531316,0.531316 z m 0,0 c 1.062707,-0.531317 2.125415,-1.062708 3.719438,-1.062708 v 1.062708 c -1.062707,0 -2.125414,0 -3.188122,1.062707 z m 3.719438,-1.062708 v 0 1.062708 0 z" fill="#24211d" fill-opacity="1" fill-rule="nonzero" id="path1884" image-rendering="optimizeQuality" shape-rendering="geometricPrecision" stroke="none" stroke-width="0.75002289" text-rendering="geometricPrecision"/>
        <path clip-rule="evenodd" d="M 86.078103,3.719363 H 132.83655 V 0.531316 H 86.078103 Z" fill="#605d5c" fill-opacity="1" fill-rule="evenodd" id="path1886" image-rendering="optimizeQuality" shape-rendering="geometricPrecision" stroke="none" stroke-width="0.75002289" text-rendering="geometricPrecision"/>
        <path clip-rule="evenodd" d="M 86.078103,3.719363 H 132.83655 V 0.531316 H 86.078103 Z" fill="none" fill-rule="evenodd" id="path1888" image-rendering="optimizeQuality" shape-rendering="geometricPrecision" stroke="#24211d" stroke-dasharray="none" stroke-linecap="round" stroke-linejoin="round" stroke-miterlimit="4" stroke-opacity="1" stroke-width="0.425077" text-rendering="geometricPrecision"/>
        <path clip-rule="evenodd" d="M 86.078103,59.510715 H 131.77385 V 56.322668 H 86.078103 Z" fill="#605d5c" fill-opacity="1" fill-rule="evenodd" id="path1890" image-rendering="optimizeQuality" shape-rendering="geometricPrecision" stroke="none" stroke-width="0.75002289" text-rendering="geometricPrecision"/>
        <path clip-rule="evenodd" d="M 86.078103,59.510715 H 131.77385 V 56.322668 H 86.078103 Z" fill="none" fill-rule="evenodd" id="path1892" image-rendering="optimizeQuality" shape-rendering="geometricPrecision" stroke="#24211d" stroke-dasharray="none" stroke-linecap="round" stroke-linejoin="round" stroke-miterlimit="4" stroke-opacity="1" stroke-width="0.425077" text-rendering="geometricPrecision"/>
        <g clip-rule="evenodd" fill="#000000" fill-opacity="1" fill-rule="evenodd" font-family="OCRA" font-size="14.4379" font-style="normal" font-variant="normal" font-weight="700" id="text1898" image-rendering="optimizeQuality" letter-spacing="0" line-height="125%" shape-rendering="geometricPrecision" stroke="none" stroke-width="0.75002289" text-align="start" text-rendering="geometricPrecision" word-spacing="0" x="40.9137" xml:space="preserve" y="37.1942"/>
        <text clip-rule="evenodd" fill="#000000" fill-opacity="1" fill-rule="evenodd" font-family="OCRA" font-size="14.4379" font-style="normal" font-variant="normal" font-weight="700" id="text1904" image-rendering="optimizeQuality" letter-spacing="0" line-height="125%" shape-rendering="geometricPrecision" stroke="none" stroke-width="0.75002289" text-align="start" text-anchor="start" text-rendering="geometricPrecision" word-spacing="0" x="172.15613" xml:space="preserve" xmlns:xml="http://www.w3.org/XML/1998/namespace" y="35.600227">
            <tspan id="tspan1902" stroke-width="0.75002289" x="172.15613" y="35.600227">
                <tspan dx="0" dy="0" fill="#24211d" font-family="OCRA" font-size="18.04742622" font-style="normal" font-variant="normal" font-weight="700" id="tspan1900" stroke-width="0.75002289">-</tspan>
            </tspan>
        </text>
        <path clip-rule="evenodd" d="M 20.191141,56.322668 H 200.31754 V 4.250755 H 20.191141 Z" fill="#fa9d99" fill-opacity="1" fill-rule="evenodd" id="path1906" image-rendering="optimizeQuality" shape-rendering="geometricPrecision" stroke="none" stroke-width="0.75002289" text-rendering="geometricPrecision"/>
        <path clip-rule="evenodd" d="M 20.191141,56.322668 H 200.31754 V 4.250755 H 20.191141 Z" fill="none" fill-rule="evenodd" id="path1908" image-rendering="optimizeQuality" shape-rendering="geometricPrecision" stroke="#24211d" stroke-dasharray="none" stroke-linecap="round" stroke-linejoin="round" stroke-miterlimit="4" stroke-opacity="1" stroke-width="0.425077" text-rendering="geometricPrecision"/>
        <path clip-rule="evenodd" d="M 23.379188,4.250755 V 56.322668" fill="none" fill-rule="evenodd" id="path1932" image-rendering="optimizeQuality" shape-rendering="geometricPrecision" stroke="#24211d" stroke-dasharray="none" stroke-linecap="round" stroke-linejoin="round" stroke-miterlimit="4" stroke-opacity="1" stroke-width="0.425077" text-rendering="geometricPrecision"/>
        <path clip-rule="evenodd" d="M 196.0667,4.250755 V 56.853984" fill="none" fill-rule="evenodd" id="path1934" image-rendering="optimizeQuality" shape-rendering="geometricPrecision" stroke="#24211d" stroke-dasharray="none" stroke-linecap="round" stroke-linejoin="round" stroke-miterlimit="4" stroke-opacity="1" stroke-width="0.425077" text-rendering="geometricPrecision"/>
    </g>
    <text fill="#000000" font-family="OCRA" font-size="18" gorn="0.1.10" id="text90" stroke="none" stroke-width="0.072" text-anchor="start" x="70.2113" y="26.6247">18650</text>
    <text fill="#000000" font-family="OCRA" font-size="18" gorn="0.1.10" id="text92" stroke="none" stroke-width="0.072" text-anchor="start" x="57.9529" y="48.4174">BATTERY</text>
    <text fill="#000000" font-family="OCRA" font-size="18" gorn="0.1.10" id="text94" stroke="none" stroke-width="0.072" text-anchor="start" x="178.98" y="37.1319">-</text>
    <text fill="#000000" font-family="OCRA" font-size="18" gorn="0.1.10" id="text96" stroke="none" stroke-width="0.072" text-anchor="start" x="25.6531" y="35.9644">+</text>
</svg>
