G04 MADE WITH FRITZING*
G04 WWW.FRITZING.ORG*
G04 DOUBLE SIDED*
G04 HOLES PLATED*
G04 CONTOUR ON CENTER OF CONTOUR VECTOR*
%FSLAX26Y26*%
%MOIN*%
%ADD10C,0.128110*%
%ADD11C,0.149764*%
%ADD12C,0.104488*%
%ADD13C,0.092000*%
%ADD14C,0.088000*%
%ADD15C,0.109055*%
%ADD16C,0.085000*%
%ADD17R,0.092000X0.092000*%
%ADD18R,0.109055X0.109055*%
G04 MASK0*
%FSLAX26Y26*%
%MOIN*%
D10*
X156693Y1149610D03*
X3000000Y1149610D03*
D11*
X491733Y1459450D03*
X2664960Y839770D03*
D12*
X156693Y839770D03*
D13*
X2700000Y1982940D03*
X2800000Y1982940D03*
X2900000Y1982940D03*
D14*
X554732Y1849220D03*
X655213Y1849220D03*
X755213Y1849220D03*
X855213Y1849220D03*
X955213Y1849220D03*
X1055210Y1849220D03*
X1155210Y1849220D03*
X1255210Y1849220D03*
X1355210Y1849220D03*
X1455210Y1849220D03*
X1555210Y1849220D03*
X1655210Y1849220D03*
X1755210Y1849220D03*
X1855210Y1849220D03*
X1955210Y1849220D03*
X2055210Y1849220D03*
X2155210Y1849220D03*
X2255210Y1849220D03*
X2255550Y2749608D03*
X2155550Y2749608D03*
X2055550Y2749608D03*
X1955550Y2749608D03*
X1855550Y2749608D03*
X1755550Y2749608D03*
X1655550Y2749608D03*
X1555550Y2749608D03*
X1455550Y2749608D03*
X1355550Y2749608D03*
X1255550Y2749608D03*
X1155550Y2749608D03*
X1055550Y2749608D03*
X955555Y2749608D03*
D15*
X2900000Y2649610D03*
X2700000Y2649610D03*
X2600010Y449610D03*
X2737800Y449610D03*
X2875600Y449610D03*
X1900010Y449610D03*
X2037800Y449610D03*
X2175600Y449610D03*
X1100000Y449610D03*
X1237790Y449610D03*
X1375590Y449610D03*
X300000Y449610D03*
X437795Y449610D03*
X575590Y449610D03*
D16*
X2900000Y2249610D03*
X2500000Y2249610D03*
X2600000Y1749610D03*
X3000000Y1749610D03*
D17*
X2700000Y1982940D03*
D18*
X2899998Y2649610D03*
X2600008Y449612D03*
X1900008Y449612D03*
X1099998Y449612D03*
X300000Y449612D03*
G04 End of Mask0*
M02*