G04 MADE WITH FRITZING*
G04 WWW.FRITZING.ORG*
G04 DOUBLE SIDED*
G04 HOLES PLATED*
G04 CONTOUR ON CENTER OF CONTOUR VECTOR*
%FSLAX26Y26*%
%MOIN*%
%ADD10C,0.118110*%
%ADD11C,0.139764*%
%ADD12C,0.094488*%
%ADD13C,0.082000*%
%ADD14C,0.078000*%
%ADD15C,0.099055*%
%ADD16C,0.075000*%
%ADD17R,0.082000X0.082000*%
%ADD18R,0.099055X0.099055*%
%ADD19C,0.024000*%
G04 COPPER0*
%FSLAX26Y26*%
%MOIN*%
D10*
X156693Y1149610D03*
X3000000Y1149610D03*
D11*
X491733Y1459450D03*
X2664960Y839770D03*
D12*
X156693Y839770D03*
D13*
X2700000Y1982940D03*
X2800000Y1982940D03*
X2900000Y1982940D03*
D14*
X554732Y1849220D03*
X655213Y1849220D03*
X755213Y1849220D03*
X855213Y1849220D03*
X955213Y1849220D03*
X1055210Y1849220D03*
X1155210Y1849220D03*
X1255210Y1849220D03*
X1355210Y1849220D03*
X1455210Y1849220D03*
X1555210Y1849220D03*
X1655210Y1849220D03*
X1755210Y1849220D03*
X1855210Y1849220D03*
X1955210Y1849220D03*
X2055210Y1849220D03*
X2155210Y1849220D03*
X2255210Y1849220D03*
X2255550Y2749608D03*
X2155550Y2749608D03*
X2055550Y2749608D03*
X1955550Y2749608D03*
X1855550Y2749608D03*
X1755550Y2749608D03*
X1655550Y2749608D03*
X1555550Y2749608D03*
X1455550Y2749608D03*
X1355550Y2749608D03*
X1255550Y2749608D03*
X1155550Y2749608D03*
X1055550Y2749608D03*
X955555Y2749608D03*
D15*
X2900000Y2649610D03*
X2700000Y2649610D03*
X2600010Y449610D03*
X2737800Y449610D03*
X2875600Y449610D03*
X1900010Y449610D03*
X2037800Y449610D03*
X2175600Y449610D03*
X1100000Y449610D03*
X1237790Y449610D03*
X1375590Y449610D03*
X300000Y449610D03*
X437795Y449610D03*
X575590Y449610D03*
D16*
X2900000Y2249610D03*
X2500000Y2249610D03*
X2600000Y1749610D03*
X3000000Y1749610D03*
D17*
X2700000Y1982940D03*
D18*
X2899998Y2649610D03*
X2600008Y449612D03*
X1900008Y449612D03*
X1099998Y449612D03*
X300000Y449612D03*
D19*
X2502500Y1651900D02*
X2587640Y1737220D01*
D02*
X2098060Y1651900D02*
X2502500Y1651900D01*
D02*
X2059240Y1830650D02*
X2098060Y1651900D01*
D02*
X2900620Y1847810D02*
X2698400Y1847810D01*
D02*
X2698400Y1847810D02*
X2699750Y1961950D01*
D02*
X2987550Y1761910D02*
X2900620Y1847810D01*
D02*
X2597290Y2050030D02*
X2682420Y1994430D01*
D02*
X2507670Y2233879D02*
X2597290Y2050030D01*
D02*
X2900620Y2050030D02*
X2900200Y2003940D01*
D02*
X2900050Y2232110D02*
X2900620Y2050030D01*
D02*
X1099580Y2549263D02*
X3001740Y2448152D01*
D02*
X3001730Y2448152D02*
X3001730Y2050030D01*
D02*
X3001730Y2050030D02*
X2917530Y1994500D01*
D02*
X1059630Y2731056D02*
X1099580Y2549263D01*
D02*
X298645Y947660D02*
X298644Y649020D01*
D02*
X298644Y649020D02*
X420898Y473820D01*
D02*
X799292Y1648900D02*
X699810Y1250760D01*
D02*
X699810Y1250760D02*
X298645Y947660D01*
D02*
X850105Y1830920D02*
X799292Y1648900D01*
D02*
X1100980Y2850965D02*
X1146550Y2766342D01*
D02*
X998454Y2949028D02*
X2701640Y2950541D01*
D02*
X2701640Y2950541D02*
X2883750Y2674264D01*
D02*
X2687090Y2676167D02*
X2602110Y2851007D01*
D02*
X2602110Y2851007D02*
X1100980Y2850965D01*
D02*
X959552Y2768188D02*
X998454Y2949028D01*
D02*
X497671Y651780D02*
X1099620Y651780D01*
D02*
X1900630Y651780D02*
X1398220Y651780D01*
D02*
X2021220Y474040D02*
X1900640Y651770D01*
D02*
X1398220Y651780D02*
X1256150Y472740D01*
D02*
X446181Y477920D02*
X497671Y651780D01*
D02*
X1099620Y651780D02*
X1221130Y473990D01*
D02*
X2099700Y651780D02*
X2046440Y477850D01*
D02*
X2602110Y651780D02*
X2298770Y651780D01*
D02*
X2721340Y474130D02*
X2602110Y651770D01*
D02*
X2298770Y651780D02*
X2099700Y651780D01*
G04 End of Copper0*
M02*