; NON-PLATED HOLES START AT T1
; THROUGH (PLATED) HOLES START AT T100
M48
INCH
T1C0.139764
T2C0.094488
T100C0.035000
T101C0.038000
T102C0.042000
T103C0.059055
%
T1
X026649Y008397
X004917Y014594
T2
X001566Y008397
T100
X029000Y022496
X026000Y017496
X025000Y022496
X030000Y017496
T101
X012555Y027496
X008552Y018492
X005547Y018492
X018552Y018492
X015552Y018492
X017555Y027496
X022555Y027496
X018555Y027496
X014555Y027496
X013552Y018492
X015555Y027496
X017552Y018492
X010555Y027496
X022552Y018492
X007552Y018492
X013555Y027496
X020555Y027496
X012552Y018492
X014552Y018492
X021555Y027496
X009552Y018492
X019555Y027496
X011552Y018492
X009555Y027496
X019552Y018492
X010552Y018492
X020552Y018492
X006552Y018492
X016555Y027496
X016552Y018492
X021552Y018492
X011555Y027496
T102
X029000Y019829
X028000Y019829
X027000Y019829
T103
X028756Y004496
X019000Y004496
X027378Y004496
X029000Y026496
X003000Y004496
X013755Y004496
X001566Y011496
X011000Y004496
X004377Y004496
X020378Y004496
X021756Y004496
X026000Y004496
X005755Y004496
X030000Y011496
X012377Y004496
X027000Y026496
T00
M30
