G04 MADE WITH FRITZING*
G04 WWW.FRITZING.ORG*
G04 DOUBLE SIDED*
G04 HOLES PLATED*
G04 CONTOUR ON CENTER OF CONTOUR VECTOR*
%FSLAX26Y26*%
%MOIN*%
%ADD10C,0.088000*%
%ADD11C,0.103000*%
%ADD12C,0.136000*%
%ADD13C,0.109055*%
%ADD14C,0.084000*%
%ADD15C,0.085000*%
%ADD16R,0.109055X0.109055*%
G04 MASK1*
%FSLAX26Y26*%
%MOIN*%
D10*
X543621Y1849220D03*
X644102Y1849220D03*
X744102Y1849220D03*
X844102Y1849220D03*
X944102Y1849220D03*
X1044100Y1849220D03*
X1144100Y1849220D03*
X1244100Y1849220D03*
X1344100Y1849220D03*
X1444100Y1849220D03*
X1544100Y1849220D03*
X1644100Y1849220D03*
X1744100Y1849220D03*
X1844100Y1849220D03*
X1944100Y1849220D03*
X2044100Y1849220D03*
X2144100Y1849220D03*
X2244100Y1849220D03*
X2244440Y2749608D03*
X2144440Y2749608D03*
X2044440Y2749608D03*
X1944440Y2749608D03*
X1844440Y2749608D03*
X1744440Y2749608D03*
X1644440Y2749608D03*
X1544440Y2749608D03*
X1444440Y2749608D03*
X1344440Y2749608D03*
X1244440Y2749608D03*
X1144440Y2749608D03*
X1044440Y2749608D03*
X944444Y2749608D03*
D11*
X3002330Y1148950D03*
D12*
X2660580Y1149450D03*
D11*
X133333Y1149610D03*
D12*
X470833Y1149450D03*
D13*
X2900000Y2649610D03*
X2700000Y2649610D03*
X2600010Y449610D03*
X2737800Y449610D03*
X2875600Y449610D03*
X1900010Y449610D03*
X2037800Y449610D03*
X2175600Y449610D03*
X1100000Y449610D03*
X1237790Y449610D03*
X1375590Y449610D03*
X300000Y449610D03*
X437795Y449610D03*
X575590Y449610D03*
D14*
X2900000Y2149610D03*
X2800000Y2149610D03*
X2700000Y2149610D03*
X2900000Y2149610D03*
X2800000Y2149610D03*
X2700000Y2149610D03*
D15*
X2600000Y1949610D03*
X3000000Y1949610D03*
X2500000Y1749610D03*
X2900000Y1749610D03*
D16*
X2899998Y2649610D03*
X2600008Y449612D03*
X1900008Y449612D03*
X1099998Y449612D03*
X300000Y449612D03*
G04 End of Mask1*
M02*