G04 MADE WITH FRITZING*
G04 WWW.FRITZING.ORG*
G04 DOUBLE SIDED*
G04 HOLES PLATED*
G04 CONTOUR ON CENTER OF CONTOUR VECTOR*
%FSLAX26Y26*%
%MOIN*%
%ADD10C,0.078000*%
%ADD11C,0.093000*%
%ADD12C,0.099055*%
%ADD13C,0.074000*%
%ADD14C,0.075000*%
%ADD15R,0.099055X0.099055*%
%ADD16C,0.024000*%
G04 COPPER1*
%FSLAX26Y26*%
%MOIN*%
D10*
X543621Y1849220D03*
X644102Y1849220D03*
X744102Y1849220D03*
X844102Y1849220D03*
X944102Y1849220D03*
X1044100Y1849220D03*
X1144100Y1849220D03*
X1244100Y1849220D03*
X1344100Y1849220D03*
X1444100Y1849220D03*
X1544100Y1849220D03*
X1644100Y1849220D03*
X1744100Y1849220D03*
X1844100Y1849220D03*
X1944100Y1849220D03*
X2044100Y1849220D03*
X2144100Y1849220D03*
X2244100Y1849220D03*
X2244440Y2749608D03*
X2144440Y2749608D03*
X2044440Y2749608D03*
X1944440Y2749608D03*
X1844440Y2749608D03*
X1744440Y2749608D03*
X1644440Y2749608D03*
X1544440Y2749608D03*
X1444440Y2749608D03*
X1344440Y2749608D03*
X1244440Y2749608D03*
X1144440Y2749608D03*
X1044440Y2749608D03*
X944444Y2749608D03*
D11*
X3002330Y1148950D03*
X133333Y1149610D03*
D12*
X2900000Y2649610D03*
X2700000Y2649610D03*
X2600010Y449610D03*
X2737800Y449610D03*
X2875600Y449610D03*
X1900010Y449610D03*
X2037800Y449610D03*
X2175600Y449610D03*
X1100000Y449610D03*
X1237790Y449610D03*
X1375590Y449610D03*
X300000Y449610D03*
X437795Y449610D03*
X575590Y449610D03*
D13*
X2900000Y2149610D03*
X2800000Y2149610D03*
X2700000Y2149610D03*
X2900000Y2149610D03*
X2800000Y2149610D03*
X2700000Y2149610D03*
D14*
X2600000Y1949610D03*
X3000000Y1949610D03*
X2500000Y1749610D03*
X2900000Y1749610D03*
D15*
X2899998Y2649610D03*
X2600008Y449612D03*
X1900008Y449612D03*
X1099998Y449612D03*
X300000Y449612D03*
D16*
X2799230Y2048640D02*
X1898840Y2048640D01*
D02*
X2802360Y1650100D02*
X2799240Y2048640D01*
D02*
X1898840Y2048640D02*
X1748530Y2731058D01*
D02*
X398230Y2348233D02*
X1597830Y2451478D01*
D02*
X1597830Y2451478D02*
X1641510Y2730840D01*
D02*
X398230Y1551780D02*
X299902Y2451478D01*
D02*
X1499510Y2549807D02*
X1540280Y2731076D01*
D02*
X299902Y2451478D02*
X1499510Y2549806D01*
D02*
X601747Y751530D02*
X578138Y479020D01*
D02*
X398230Y750400D02*
X601747Y751540D01*
D02*
X398231Y750400D02*
X398230Y750400D01*
D02*
X299902Y1251880D02*
X398231Y750400D01*
D02*
X1401180Y2648136D02*
X201567Y2549807D01*
D02*
X201573Y2549807D02*
X299902Y1251870D01*
D02*
X797872Y1250770D02*
X398230Y1551780D01*
D02*
X502120Y1647940D02*
X398231Y2348232D01*
D02*
X2802370Y848730D02*
X2802360Y1650100D01*
D02*
X2870270Y478650D02*
X2802370Y848730D01*
D02*
X2201940Y751530D02*
X502111Y1647940D01*
D02*
X2178170Y479030D02*
X2201950Y751540D01*
D02*
X1399620Y751530D02*
X797876Y1250760D01*
D02*
X1377930Y479040D02*
X1399620Y751540D01*
D02*
X1436990Y2732136D02*
X1401180Y2648136D01*
G04 End of Copper1*
M02*