; NON-PLATED HOLES START AT T1
; THROUGH (PLATED) HOLES START AT T100
M48
INCH
T1C0.126000
T100C0.038000
T101C0.032000
T102C0.059055
T103C0.073000
T104C0.035000
%
T1
X004708Y011494
X026605Y011494
T100
X021441Y018492
X011444Y027496
X017441Y018492
X009441Y018492
X020441Y018492
X006441Y018492
X008441Y018492
X009444Y027496
X014444Y027496
X012444Y027496
X010444Y027496
X015441Y018492
X010441Y018492
X011441Y018492
X021444Y027496
X022444Y027496
X020444Y027496
X015444Y027496
X013441Y018492
X007441Y018492
X012441Y018492
X019441Y018492
X016441Y018492
X018441Y018492
X019444Y027496
X013444Y027496
X022441Y018492
X018444Y027496
X016444Y027496
X005436Y018492
X014441Y018492
X017444Y027496
T101
X028000Y021496
X029000Y021496
X027000Y021496
T102
X028756Y004496
X026000Y004496
X020378Y004496
X005755Y004496
X027378Y004496
X004377Y004496
X013755Y004496
X012377Y004496
X019000Y004496
X027000Y026496
X011000Y004496
X021756Y004496
X003000Y004496
X029000Y026496
T103
X001333Y011496
X030023Y011489
T104
X029000Y017496
X030000Y019496
X026000Y019496
X025000Y017496
T00
M30
