G04 MADE WITH FRITZING*
G04 WWW.FRITZING.ORG*
G04 DOUBLE SIDED*
G04 HOLES PLATED*
G04 CONTOUR ON CENTER OF CONTOUR VECTOR*
%FSLAX26Y26*%
%MOIN*%
%ADD10C,0.078000*%
%ADD11C,0.093000*%
%ADD12C,0.099055*%
%ADD13C,0.075000*%
%ADD14C,0.082000*%
%ADD15R,0.099055X0.099055*%
%ADD16R,0.082000X0.082000*%
%ADD17C,0.024000*%
G04 COPPER0*
%FSLAX26Y26*%
%MOIN*%
D10*
X543621Y1849220D03*
X644102Y1849220D03*
X744102Y1849220D03*
X844102Y1849220D03*
X944102Y1849220D03*
X1044100Y1849220D03*
X1144100Y1849220D03*
X1244100Y1849220D03*
X1344100Y1849220D03*
X1444100Y1849220D03*
X1544100Y1849220D03*
X1644100Y1849220D03*
X1744100Y1849220D03*
X1844100Y1849220D03*
X1944100Y1849220D03*
X2044100Y1849220D03*
X2144100Y1849220D03*
X2244100Y1849220D03*
X2244440Y2749608D03*
X2144440Y2749608D03*
X2044440Y2749608D03*
X1944440Y2749608D03*
X1844440Y2749608D03*
X1744440Y2749608D03*
X1644440Y2749608D03*
X1544440Y2749608D03*
X1444440Y2749608D03*
X1344440Y2749608D03*
X1244440Y2749608D03*
X1144440Y2749608D03*
X1044440Y2749608D03*
X944444Y2749608D03*
D11*
X3002330Y1148950D03*
X133333Y1149610D03*
D12*
X2900000Y2649610D03*
X2700000Y2649610D03*
X2600010Y449610D03*
X2737800Y449610D03*
X2875600Y449610D03*
X1900010Y449610D03*
X2037800Y449610D03*
X2175600Y449610D03*
X1100000Y449610D03*
X1237790Y449610D03*
X1375590Y449610D03*
X300000Y449610D03*
X437795Y449610D03*
X575590Y449610D03*
D13*
X2900000Y2249610D03*
X2500000Y2249610D03*
X2600000Y1749610D03*
X3000000Y1749610D03*
D14*
X2700000Y1982940D03*
X2800000Y1982940D03*
X2900000Y1982940D03*
D15*
X2899998Y2649610D03*
X2600008Y449612D03*
X1900008Y449612D03*
X1099998Y449612D03*
X300000Y449612D03*
D16*
X2700000Y1982940D03*
D17*
X298644Y1250770D02*
X298644Y649020D01*
D02*
X298644Y649020D02*
X420898Y473820D01*
D02*
X799292Y1648900D02*
X298644Y1250770D01*
D02*
X839955Y1830680D02*
X799292Y1648900D01*
D02*
X1100970Y2850966D02*
X1136960Y2767075D01*
D02*
X998454Y2949028D02*
X2701640Y2950541D01*
D02*
X2701640Y2950541D02*
X2883750Y2674264D01*
D02*
X2687090Y2676167D02*
X2602110Y2851007D01*
D02*
X2602110Y2851007D02*
X1100980Y2850965D01*
D02*
X949412Y2767953D02*
X998455Y2949028D01*
D02*
X497671Y651780D02*
X1099620Y651780D01*
D02*
X1900630Y651780D02*
X1398220Y651780D01*
D02*
X2021220Y474040D02*
X1900640Y651770D01*
D02*
X1398220Y651780D02*
X1256150Y472740D01*
D02*
X446181Y477920D02*
X497671Y651780D01*
D02*
X1099620Y651780D02*
X1221130Y473990D01*
D02*
X2099700Y651780D02*
X2046440Y477850D01*
D02*
X2602110Y651780D02*
X2298770Y651780D01*
D02*
X2721340Y474130D02*
X2602110Y651770D01*
D02*
X2298770Y651780D02*
X2099700Y651780D01*
D02*
X2049110Y1830890D02*
X2098050Y1651900D01*
D02*
X2098050Y1651900D02*
X2502500Y1651900D01*
D02*
X2502500Y1651900D02*
X2587640Y1737220D01*
D02*
X2987550Y1761910D02*
X2900620Y1847810D01*
D02*
X2698400Y1847810D02*
X2699750Y1961940D01*
D02*
X2900620Y1847810D02*
X2698400Y1847810D01*
D02*
X2597290Y2050030D02*
X2682420Y1994430D01*
D02*
X2507670Y2233879D02*
X2597290Y2050030D01*
D02*
X2900620Y2050030D02*
X2900190Y2003940D01*
D02*
X2900050Y2232110D02*
X2900620Y2050030D01*
D02*
X1049490Y2731294D02*
X1099580Y2549264D01*
D02*
X3001730Y2050030D02*
X2917530Y1994500D01*
D02*
X3001730Y2448153D02*
X3001730Y2050030D01*
D02*
X1099580Y2549264D02*
X3001730Y2448153D01*
G04 End of Copper0*
M02*